<svg
    width="512"
    height="513"
    viewBox="0 0 512 513"
    fill="none"
    xmlns="http://www.w3.org/2000/svg"
>
    <mask
        id="mask0_449_279"
        style="mask-type:alpha"
        maskUnits="userSpaceOnUse"
        x="0"
        y="0"
        width="512"
        height="513"
    >
        <rect
            y="0.30542"
            width="512"
            height="512"
            fill="white"
        />
    </mask>
    <g mask="url(#mask0_449_279)">
        <rect
            y="0.30542"
            width="512"
            height="512"
            fill="white"
        />
        <path
            fill-rule="evenodd"
            clip-rule="evenodd"
            d="M358.955 183.955L286.91 256L358.955 328.045L286.91 400.09L258.942 372.122L303.02 328.045L230.975 256L303.02 183.955L258.943 139.878L286.91 111.91L358.955 183.955ZM256 142.82L228.032 114.852L86.8848 256L228.032 397.147L256 369.18L258.942 372.122L228.032 403.032L80.9999 256L228.032 108.967L258.943 139.878L256 142.82ZM256 142.82L297.135 183.955L225.09 256L297.135 328.045L256 369.18L214.865 328.045L142.82 256L214.865 183.955L256 142.82Z"
            fill="#B8C1EC"
        />
        <path
            d="M286.91 256L286.203 255.293L285.496 256L286.203 256.707L286.91 256ZM358.955 183.955L359.662 184.662L360.369 183.955L359.662 183.248L358.955 183.955ZM358.955 328.045L359.662 328.752L360.369 328.045L359.662 327.338L358.955 328.045ZM286.91 400.09L286.203 400.797L286.91 401.504L287.617 400.797L286.91 400.09ZM303.02 328.045L303.727 328.752L304.434 328.045L303.727 327.338L303.02 328.045ZM230.975 256L230.268 255.293L229.56 256L230.268 256.707L230.975 256ZM303.02 183.955L303.727 184.662L304.434 183.955L303.727 183.248L303.02 183.955ZM286.91 111.91L287.617 111.203L286.91 110.496L286.203 111.203L286.91 111.91ZM228.032 114.852L228.739 114.145L228.032 113.438L227.325 114.145L228.032 114.852ZM86.8848 256L86.1777 255.293L85.4705 256L86.1777 256.707L86.8848 256ZM228.032 397.147L227.325 397.854L228.032 398.561L228.739 397.854L228.032 397.147ZM228.032 403.032L227.325 403.739L228.032 404.446L228.739 403.739L228.032 403.032ZM80.9999 256L80.2928 255.293L79.5857 256L80.2928 256.707L80.9999 256ZM228.032 108.967L228.739 108.26L228.032 107.553L227.325 108.26L228.032 108.967ZM297.135 183.955L297.842 184.662L298.549 183.955L297.842 183.248L297.135 183.955ZM225.09 256L224.383 255.293L223.676 256L224.383 256.707L225.09 256ZM297.135 328.045L297.842 328.752L298.549 328.045L297.842 327.338L297.135 328.045ZM142.82 256L142.113 255.293L141.406 256L142.113 256.707L142.82 256ZM287.617 256.707L359.662 184.662L358.248 183.248L286.203 255.293L287.617 256.707ZM359.662 327.338L287.617 255.293L286.203 256.707L358.248 328.752L359.662 327.338ZM287.617 400.797L359.662 328.752L358.248 327.338L286.203 399.383L287.617 400.797ZM258.235 372.829L286.203 400.797L287.617 399.383L259.649 371.415L258.235 372.829ZM302.313 327.338L258.235 371.415L259.649 372.829L303.727 328.752L302.313 327.338ZM230.268 256.707L302.313 328.752L303.727 327.338L231.682 255.293L230.268 256.707ZM302.313 183.248L230.268 255.293L231.682 256.707L303.727 184.662L302.313 183.248ZM258.236 140.585L302.313 184.662L303.727 183.248L259.65 139.171L258.236 140.585ZM286.203 111.203L258.236 139.171L259.65 140.585L287.617 112.618L286.203 111.203ZM359.662 183.248L287.617 111.203L286.203 112.618L358.248 184.662L359.662 183.248ZM256.707 142.113L228.739 114.145L227.325 115.559L255.293 143.527L256.707 142.113ZM227.325 114.145L86.1777 255.293L87.5919 256.707L228.739 115.559L227.325 114.145ZM86.1777 256.707L227.325 397.854L228.739 396.44L87.5919 255.293L86.1777 256.707ZM228.739 397.854L256.707 369.887L255.293 368.473L227.325 396.44L228.739 397.854ZM255.293 369.887L258.235 372.829L259.649 371.415L256.707 368.473L255.293 369.887ZM258.235 371.415L227.325 402.325L228.739 403.739L259.649 372.829L258.235 371.415ZM228.739 402.325L81.707 255.293L80.2928 256.707L227.325 403.739L228.739 402.325ZM81.707 256.707L228.739 109.674L227.325 108.26L80.2928 255.293L81.707 256.707ZM227.325 109.674L258.236 140.585L259.65 139.171L228.739 108.26L227.325 109.674ZM258.236 139.171L255.293 142.113L256.707 143.527L259.65 140.585L258.236 139.171ZM297.842 183.248L256.707 142.113L255.293 143.527L296.428 184.662L297.842 183.248ZM225.797 256.707L297.842 184.662L296.428 183.248L224.383 255.293L225.797 256.707ZM297.842 327.338L225.797 255.293L224.383 256.707L296.428 328.752L297.842 327.338ZM256.707 369.887L297.842 328.752L296.428 327.338L255.293 368.473L256.707 369.887ZM214.158 328.752L255.293 369.887L256.707 368.473L215.572 327.338L214.158 328.752ZM142.113 256.707L214.158 328.752L215.572 327.338L143.527 255.293L142.113 256.707ZM214.158 183.248L142.113 255.293L143.527 256.707L215.572 184.662L214.158 183.248ZM255.293 142.113L214.158 183.248L215.572 184.662L256.707 143.527L255.293 142.113Z"
            fill="#232946"
        />
        <path
            d="M310.792 250.992L306.344 255.44L368.87 317.966L373.318 313.518L310.792 250.992Z"
            fill="#FFBDC7"
            stroke="#232946"
        />
        <path
            d="M329.382 232.401L324.934 236.849L387.461 299.376L391.909 294.928L329.382 232.401Z"
            fill="#FFBDC7"
            stroke="#232946"
        />
        <path
            d="M347.973 213.811L343.525 218.259L406.051 280.786L410.499 276.337L347.973 213.811Z"
            fill="#FFBDC7"
            stroke="#232946"
        />
        <path
            d="M366.428 195.355L362.115 199.669L424.641 262.195L428.955 257.881L366.428 195.355Z"
            fill="#FFBDC7"
            stroke="#232946"
        />
    </g>
</svg>