<svg xmlns="http://www.w3.org/2000/svg">
  <symbol id="home" stroke="currentColor" viewBox="0 0 20 20">
    <path stroke-linecap="round" stroke-linejoin="round" stroke-width="1"
      d="M10.707 2.293a1 1 0 00-1.414 0l-7 7a1 1 0 001.414 1.414L4 10.414V17a1 1 0 001 1h2a1 1 0 001-1v-2a1 1 0 011-1h2a1 1 0 011 1v2a1 1 0 001 1h2a1 1 0 001-1v-6.586l.293.293a1 1 0 001.414-1.414l-7-7z">
    </path>
  </symbol>
  <symbol id="about" stroke="currentColor" viewBox="0 0 24 24">
    <path stroke-linecap="round" stroke-linejoin="round" stroke-width="1"
      d="M14.828 14.828a4 4 0 01-5.656 0M9 10h.01M15 10h.01M21 12a9 9 0 11-18 0 9 9 0 0118 0z"></path>
  </symbol>
  <symbol id="projects" stroke="currentColor" viewBox="0 0 24 24">
    <path stroke-linecap="round" stroke-linejoin="round" stroke-width="1"
      d="M9.75 17L9 20l-1 1h8l-1-1-.75-3M3 13h18M5 17h14a2 2 0 002-2V5a2 2 0 00-2-2H5a2 2 0 00-2 2v10a2 2 0 002 2z">
    </path>
  </symbol>
</svg>