<svg xmlns="http://www.w3.org/2000/svg">
  <symbol id="home" stroke="currentColor" viewBox="0 0 20 20">
    <path stroke-linecap="round" stroke-linejoin="round" stroke-width="1"
      d="M10.707 2.293a1 1 0 00-1.414 0l-7 7a1 1 0 001.414 1.414L4 10.414V17a1 1 0 001 1h2a1 1 0 001-1v-2a1 1 0 011-1h2a1 1 0 011 1v2a1 1 0 001 1h2a1 1 0 001-1v-6.586l.293.293a1 1 0 001.414-1.414l-7-7z">
    </path>
  </symbol>
  <symbol id="about" stroke="currentColor" viewBox="0 0 24 24">
    <path stroke-linecap="round" stroke-linejoin="round" stroke-width="1"
      d="M14.828 14.828a4 4 0 01-5.656 0M9 10h.01M15 10h.01M21 12a9 9 0 11-18 0 9 9 0 0118 0z"></path>
  </symbol>
  <symbol id="projects" stroke="currentColor" viewBox="0 0 24 24">
    <path stroke-linecap="round" stroke-linejoin="round" stroke-width="1"
      d="M9.75 17L9 20l-1 1h8l-1-1-.75-3M3 13h18M5 17h14a2 2 0 002-2V5a2 2 0 00-2-2H5a2 2 0 00-2 2v10a2 2 0 002 2z">
    </path>
  </symbol>

  <symbol id="blob" width="628" height="745" viewBox="0 0 628 745" fill="none">
    <rect width="628" height="745" fill="#E5E5E5" />
    <g filter="url(#filter0_dd)">
      <path fill-rule="evenodd" clip-rule="evenodd"
        d="M358.868 42.632C422.994 61.009 461.441 127.006 505.312 181.055C539.377 223.023 570.424 266.61 584.39 320.474C597.92 372.652 587.238 425.137 582.595 479.112C576.352 551.682 602.217 640.865 552.611 689.916C503.584 738.393 425.009 705.035 358.868 700.334C297.707 695.988 236.639 695.262 182.7 663.627C122.731 628.454 52.7471 585.551 39.3553 512.936C26.0342 440.703 101.477 386.536 118.445 315.213C137.293 235.99 90.9108 136.301 143.014 77.2289C194.605 18.7372 286.778 21.9727 358.868 42.632Z"
        fill="white" />
    </g>
    <defs>
      <filter id="filter0_dd" x="17.7871" y="9.0368" width="593.213" height="726.852" filterUnits="userSpaceOnUse"
        color-interpolation-filters="sRGB">
        <feFlood flood-opacity="0" result="BackgroundImageFix" />
        <feColorMatrix in="SourceAlpha" type="matrix" values="0 0 0 0 0 0 0 0 0 0 0 0 0 0 0 0 0 0 127 0" />
        <feOffset dx="-4" dy="-4" />
        <feGaussianBlur stdDeviation="8" />
        <feColorMatrix type="matrix" values="0 0 0 0 1 0 0 0 0 1 0 0 0 0 1 0 0 0 0.5 0" />
        <feBlend mode="normal" in2="BackgroundImageFix" result="effect1_dropShadow" />
        <feColorMatrix in="SourceAlpha" type="matrix" values="0 0 0 0 0 0 0 0 0 0 0 0 0 0 0 0 0 0 127 0" />
        <feOffset dx="4" dy="4" />
        <feGaussianBlur stdDeviation="8" />
        <feColorMatrix type="matrix" values="0 0 0 0 0.137255 0 0 0 0 0.160784 0 0 0 0 0.27451 0 0 0 0.25 0" />
        <feBlend mode="normal" in2="effect1_dropShadow" result="effect2_dropShadow" />
        <feBlend mode="normal" in="SourceGraphic" in2="effect2_dropShadow" result="shape" />
      </filter>
    </defs>
  </symbol>

  <symbol id="linkedin" viewBox="0 -10 256 270">
    <path
      d="M218.123122,218.127392 L180.191928,218.127392 L180.191928,158.724263 C180.191928,144.559023 179.939053,126.323993 160.463756,126.323993 C140.707926,126.323993 137.685284,141.757585 137.685284,157.692986 L137.685284,218.123441 L99.7540894,218.123441 L99.7540894,95.9665207 L136.168036,95.9665207 L136.168036,112.660562 L136.677736,112.660562 C144.102746,99.9650027 157.908637,92.3824528 172.605689,92.9280076 C211.050535,92.9280076 218.138927,118.216023 218.138927,151.114151 L218.123122,218.127392 Z M56.9550587,79.2685282 C44.7981969,79.2707099 34.9413443,69.4171797 34.9391618,57.260052 C34.93698,45.1029244 44.7902948,35.2458562 56.9471566,35.2436736 C69.1040185,35.2414916 78.9608713,45.0950217 78.963054,57.2521493 C78.9641017,63.090208 76.6459976,68.6895714 72.5186979,72.8184433 C68.3913982,76.9473153 62.7929898,79.26748 56.9550587,79.2685282 M75.9206558,218.127392 L37.94995,218.127392 L37.94995,95.9665207 L75.9206558,95.9665207 L75.9206558,218.127392 Z M237.033403,0.0182577091 L18.8895249,0.0182577091 C8.57959469,-0.0980923971 0.124827038,8.16056231 -0.001,18.4706066 L-0.001,237.524091 C0.120519052,247.839103 8.57460631,256.105934 18.8895249,255.9977 L237.033403,255.9977 C247.368728,256.125818 255.855922,247.859464 255.999,237.524091 L255.999,18.4548016 C255.851624,8.12438979 247.363742,-0.133792868 237.033403,0.000790807055"
      fill="currentColor"></path>
  </symbol>

  <symbol id="codepen" viewBox="0 -10 256 270">
    <path
      d="M255.806943,87.0866439 C255.748337,86.7763743 255.696625,86.4661047 255.613887,86.1627299 C255.562175,85.9800156 255.500121,85.8076436 255.441515,85.6283767 C255.355329,85.3594764 255.265695,85.0905761 255.158825,84.8285707 C255.082981,84.6458563 254.996795,84.4700369 254.914056,84.2942175 C254.796843,84.0460018 254.676183,83.8012335 254.538285,83.5633602 C254.441757,83.3875407 254.331439,83.2220636 254.224568,83.0531391 C254.076328,82.825608 253.924641,82.6015244 253.759164,82.3843357 C253.638504,82.222306 253.514396,82.0671712 253.383393,81.9120364 C253.211021,81.70519 253.024859,81.5086859 252.838698,81.3156293 C252.693905,81.1708368 252.549113,81.0260443 252.397425,80.8846993 C252.197474,80.701985 251.990627,80.529613 251.773439,80.3641359 C251.607961,80.2365806 251.445932,80.1055779 251.27356,79.9883649 C251.211506,79.9435482 251.156347,79.8918366 251.090845,79.8504673 L134.098521,1.8486897 C130.406313,-0.616229901 125.590239,-0.616229901 121.898031,1.8486897 L4.89881225,79.8470198 C4.83331089,79.8883891 4.78159929,79.9401007 4.71609793,79.9849174 C4.54372593,80.1055779 4.38169625,80.2331331 4.21621913,80.3606884 C4.00247785,80.529613 3.79218401,80.701985 3.59223249,80.8778044 C3.44054513,81.015702 3.29575265,81.1604945 3.15440761,81.3087344 C2.96135097,81.5017911 2.78208409,81.6982951 2.60626464,81.9051415 C2.47526192,82.0602763 2.35115408,82.2154111 2.23049368,82.3877831 C2.06501656,82.6049719 1.9133292,82.825608 1.76508928,83.0565865 C1.65821864,83.2255111 1.551348,83.3909882 1.45137224,83.5668076 C1.31347464,83.804681 1.19281424,84.0494492 1.07904872,84.29077 C0.996310162,84.4665895 0.906676722,84.6458563 0.834280482,84.8251232 C0.727409841,85.0871287 0.634328961,85.356029 0.548142961,85.6249293 C0.489536481,85.8041962 0.427482561,85.9800156 0.379218401,86.1420453 C0.299927281,86.44542 0.2413208,86.7522422 0.18616176,87.0659592 C0.1551348,87.2245415 0.11721296,87.3796763 0.0965283202,87.5417059 C0.0344744001,88.0174527 2.84217094e-14,88.4931994 2.84217094e-14,88.9792884 L2.84217094e-14,166.994856 C2.84217094e-14,167.477497 0.0344744001,167.960139 0.1034232,168.432438 C0.12755528,168.60481 0.172372,168.742708 0.2068464,168.908185 C0.26200544,169.218455 0.310269601,169.528724 0.413692801,169.838994 C0.461956961,170.011366 0.517116001,170.183738 0.586064801,170.373347 C0.672250801,170.649142 0.758436801,170.924937 0.861860002,171.176601 C0.934256242,171.348973 1.034232,171.521345 1.1031808,171.693717 C1.21694632,171.935037 1.3445016,172.176358 1.4823992,172.428021 C1.57892752,172.600393 1.6892456,172.772765 1.7926688,172.931347 C1.94090872,173.172668 2.1029384,173.379515 2.2753104,173.586361 C2.3959708,173.758733 2.5166312,173.896631 2.6545288,174.062108 C2.83034825,174.268954 2.99927281,174.475801 3.20611921,174.658515 C3.34746425,174.796413 3.48191441,174.968785 3.65428641,175.072208 C3.85423793,175.24458 4.06797921,175.416952 4.27482561,175.596219 C4.44030273,175.734116 4.61956961,175.837539 4.75746721,175.97199 C4.82296857,176.006464 4.86089041,176.075413 4.92983921,176.10644 L121.898031,254.146139 C123.745859,255.387218 125.862587,256.007757 128,255.997414 C130.137413,255.987072 132.254141,255.376875 134.101969,254.146139 L251.101188,176.147809 C251.166689,176.10644 251.221848,176.058176 251.283902,176.013359 C251.456274,175.892698 251.618304,175.765143 251.783781,175.637588 C251.997522,175.468663 252.207816,175.292844 252.407768,175.113577 C252.559455,174.979127 252.704247,174.830887 252.84904,174.686094 C253.038649,174.493038 253.221363,174.296534 253.393735,174.089687 C253.524738,173.934553 253.648846,173.779418 253.769506,173.613941 C253.934983,173.396752 254.086671,173.172668 254.234911,172.945137 C254.341781,172.77966 254.448652,172.610736 254.548628,172.441811 C254.686525,172.20049 254.807186,171.955722 254.924399,171.707506 C255.007137,171.531687 255.093323,171.355867 255.169167,171.176601 C255.276038,170.911148 255.365671,170.642247 255.451857,170.373347 C255.510464,170.19408 255.572517,170.018261 255.624229,169.838994 C255.70352,169.535619 255.758679,169.225349 255.817286,168.91508 C255.844865,168.756498 255.886234,168.601363 255.903472,168.439333 C255.965526,167.963586 256,167.48784 256,167.001751 L256,88.9999731 C256,88.513884 255.962078,88.0381373 255.903472,87.5623906 C255.875892,87.393466 255.824181,87.2555684 255.789706,87.0866439 L255.806943,87.0866439 Z M127.996553,154.022139 L89.0921921,128.000862 L127.996553,101.976137 L166.90436,128.000862 L127.996553,154.022139 L127.996553,154.022139 Z M116.999219,82.8669773 L69.3073339,114.76614 L30.8097713,89.0137628 L116.999219,31.5552802 L116.999219,82.8669773 L116.999219,82.8669773 Z M49.5224757,127.997414 L22.0050096,146.403297 L22.0050096,109.591532 L49.5224757,127.997414 L49.5224757,127.997414 Z M69.3073339,141.242479 L116.999219,173.138194 L116.999219,224.449891 L30.8097713,166.984513 L69.3073339,141.235584 L69.3073339,141.242479 Z M138.997334,173.131299 L186.689219,141.235584 L225.190229,166.984513 L138.997334,224.442996 L138.997334,173.131299 L138.997334,173.131299 Z M206.474077,128.004309 L233.99499,109.59498 L233.99499,146.410191 L206.474077,127.997414 L206.474077,128.004309 Z M186.689219,114.76614 L138.997334,82.8704247 L138.997334,31.5552802 L225.190229,89.0137628 L186.689219,114.76614 L186.689219,114.76614 Z"
      fill="currentColor"></path>
  </symbol>

  <symbol id="github" viewBox="0 -10 256 270">
    <path
      d="M128.00106,0 C57.3172926,0 0,57.3066942 0,128.00106 C0,184.555281 36.6761997,232.535542 87.534937,249.460899 C93.9320223,250.645779 96.280588,246.684165 96.280588,243.303333 C96.280588,240.251045 96.1618878,230.167899 96.106777,219.472176 C60.4967585,227.215235 52.9826207,204.369712 52.9826207,204.369712 C47.1599584,189.574598 38.770408,185.640538 38.770408,185.640538 C27.1568785,177.696113 39.6458206,177.859325 39.6458206,177.859325 C52.4993419,178.762293 59.267365,191.04987 59.267365,191.04987 C70.6837675,210.618423 89.2115753,204.961093 96.5158685,201.690482 C97.6647155,193.417512 100.981959,187.77078 104.642583,184.574357 C76.211799,181.33766 46.324819,170.362144 46.324819,121.315702 C46.324819,107.340889 51.3250588,95.9223682 59.5132437,86.9583937 C58.1842268,83.7344152 53.8029229,70.715562 60.7532354,53.0843636 C60.7532354,53.0843636 71.5019501,49.6441813 95.9626412,66.2049595 C106.172967,63.368876 117.123047,61.9465949 128.00106,61.8978432 C138.879073,61.9465949 149.837632,63.368876 160.067033,66.2049595 C184.49805,49.6441813 195.231926,53.0843636 195.231926,53.0843636 C202.199197,70.715562 197.815773,83.7344152 196.486756,86.9583937 C204.694018,95.9223682 209.660343,107.340889 209.660343,121.315702 C209.660343,170.478725 179.716133,181.303747 151.213281,184.472614 C155.80443,188.444828 159.895342,196.234518 159.895342,208.176593 C159.895342,225.303317 159.746968,239.087361 159.746968,243.303333 C159.746968,246.709601 162.05102,250.70089 168.53925,249.443941 C219.370432,232.499507 256,184.536204 256,128.00106 C256,57.3066942 198.691187,0 128.00106,0 Z M47.9405593,182.340212 C47.6586465,182.976105 46.6581745,183.166873 45.7467277,182.730227 C44.8183235,182.312656 44.2968914,181.445722 44.5978808,180.80771 C44.8734344,180.152739 45.876026,179.97045 46.8023103,180.409216 C47.7328342,180.826786 48.2627451,181.702199 47.9405593,182.340212 Z M54.2367892,187.958254 C53.6263318,188.524199 52.4329723,188.261363 51.6232682,187.366874 C50.7860088,186.474504 50.6291553,185.281144 51.2480912,184.70672 C51.8776254,184.140775 53.0349512,184.405731 53.8743302,185.298101 C54.7115892,186.201069 54.8748019,187.38595 54.2367892,187.958254 Z M58.5562413,195.146347 C57.7719732,195.691096 56.4895886,195.180261 55.6968417,194.042013 C54.9125733,192.903764 54.9125733,191.538713 55.713799,190.991845 C56.5086651,190.444977 57.7719732,190.936735 58.5753181,192.066505 C59.3574669,193.22383 59.3574669,194.58888 58.5562413,195.146347 Z M65.8613592,203.471174 C65.1597571,204.244846 63.6654083,204.03712 62.5716717,202.981538 C61.4524999,201.94927 61.1409122,200.484596 61.8446341,199.710926 C62.5547146,198.935137 64.0575422,199.15346 65.1597571,200.200564 C66.2704506,201.230712 66.6095936,202.705984 65.8613592,203.471174 Z M75.3025151,206.281542 C74.9930474,207.284134 73.553809,207.739857 72.1039724,207.313809 C70.6562556,206.875043 69.7087748,205.700761 70.0012857,204.687571 C70.302275,203.678621 71.7478721,203.20382 73.2083069,203.659543 C74.6539041,204.09619 75.6035048,205.261994 75.3025151,206.281542 Z M86.046947,207.473627 C86.0829806,208.529209 84.8535871,209.404622 83.3316829,209.4237 C81.8013,209.457614 80.563428,208.603398 80.5464708,207.564772 C80.5464708,206.498591 81.7483088,205.631657 83.2786917,205.606221 C84.8005962,205.576546 86.046947,206.424403 86.046947,207.473627 Z M96.6021471,207.069023 C96.7844366,208.099171 95.7267341,209.156872 94.215428,209.438785 C92.7295577,209.710099 91.3539086,209.074206 91.1652603,208.052538 C90.9808515,206.996955 92.0576306,205.939253 93.5413813,205.66582 C95.054807,205.402984 96.4092596,206.021919 96.6021471,207.069023 Z"
      fill="currentColor"></path>
  </symbol>

  <symbol id="twitter" viewBox="0 0 400 400">
	<circle fill="currentColor" cx="200" cy="200" r="190" stroke-width="15"/>
	<path stroke-width="15" fill="var(--tertiary)" d="M163.4,305.5c88.7,0,137.2-73.5,137.2-137.2c0-2.1,0-4.2-0.1-6.2c9.4-6.8,17.6-15.3,24.1-25
		c-8.6,3.8-17.9,6.4-27.7,7.6c10-6,17.6-15.4,21.2-26.7c-9.3,5.5-19.6,9.5-30.6,11.7c-8.8-9.4-21.3-15.2-35.2-15.2
		c-26.6,0-48.2,21.6-48.2,48.2c0,3.8,0.4,7.5,1.3,11c-40.1-2-75.6-21.2-99.4-50.4c-4.1,7.1-6.5,15.4-6.5,24.2
		c0,16.7,8.5,31.5,21.5,40.1c-7.9-0.2-15.3-2.4-21.8-6c0,0.2,0,0.4,0,0.6c0,23.4,16.6,42.8,38.7,47.3c-4,1.1-8.3,1.7-12.7,1.7
		c-3.1,0-6.1-0.3-9.1-0.9c6.1,19.2,23.9,33.1,45,33.5c-16.5,12.9-37.3,20.6-59.9,20.6c-3.9,0-7.7-0.2-11.5-0.7
		C110.8,297.5,136.2,305.5,163.4,305.5"/>
  </symbol>
</svg>